HIERARCHY
ROOT hips
{
  OFFSET 0 10.6860622 2.3727825e-15
  CHANNELS 6 Xposition Yposition Zposition Yrotation Xrotation Zrotation
  JOINT leftUpperLeg
  {
    OFFSET 0.6642549969 -0.9402397400000004 0
    CHANNELS 3 Yrotation Xrotation Zrotation
    JOINT leftLowerLeg
    {
      OFFSET 0 -3.997221335632195 0
      CHANNELS 3 Yrotation Xrotation Zrotation
      JOINT leftFoot
      {
        OFFSET -0.13777839790000004 -4.6145792000000005 -0.22186036399999998
        CHANNELS 3 Yrotation Xrotation Zrotation
        JOINT leftToes
        {
          OFFSET -0.03777410834999995 -0.9130806927000008 0.85230013
          CHANNELS 3 Yrotation Xrotation Zrotation
          End Site
          {
            OFFSET -0.03777410834999995 -0.9130806927000008 0.85230013
          }
        }
      }
    }
  }
  JOINT rightUpperLeg
  {
    OFFSET -0.6642778626 -0.9402397400000004 0
    CHANNELS 3 Yrotation Xrotation Zrotation
    JOINT rightLowerLeg
    {
      OFFSET 0 -3.997221452859387 0
      CHANNELS 3 Yrotation Xrotation Zrotation
      JOINT rightFoot
      {
        OFFSET 0.1377926176 -4.6145792000000005 -0.22185782299999995
        CHANNELS 3 Yrotation Xrotation Zrotation
        JOINT rightToes
        {
          OFFSET 0.037780746850000047 -0.9130806927000008 0.85230167
          CHANNELS 3 Yrotation Xrotation Zrotation
          End Site
          {
            OFFSET 0.037780746850000047 -0.9130806927000008 0.85230167
          }
        }
      }
    }
  }
  JOINT spine
  {
    OFFSET 0 0.13988381660000015 0
    CHANNELS 3 Yrotation Xrotation Zrotation
    JOINT chest
    {
      OFFSET 0 0.6191039003973773 0
      CHANNELS 3 Yrotation Xrotation Zrotation
      JOINT upperChest
      {
        OFFSET 0 0.9855186130586943 0
        CHANNELS 3 Yrotation Xrotation Zrotation
        JOINT leftShoulder
        {
          OFFSET 0.1807663869 1.5087829790000005 0
          CHANNELS 3 Yrotation Xrotation Zrotation
          JOINT leftUpperArm
          {
            OFFSET 0.5985063006419806 0 0
            CHANNELS 3 Yrotation Xrotation Zrotation
            JOINT leftLowerArm
            {
              OFFSET 2.2993332369501065 0 0
              CHANNELS 3 Yrotation Xrotation Zrotation
              JOINT leftHand
              {
                OFFSET 2.395047042602395 0 0
                CHANNELS 3 Yrotation Xrotation Zrotation
                JOINT leftIndexProximal
                {
                  OFFSET 0.5766295810000004 0.04556643899499946 0.17265095988184
                  CHANNELS 3 Yrotation Xrotation Zrotation
                  JOINT leftIndexIntermediate
                  {
                    OFFSET 0.2957229000000008 -0.019352197700001517 -0.007932640616999987
                    CHANNELS 3 Yrotation Xrotation Zrotation
                    JOINT leftIndexDistal
                    {
                      OFFSET 0.19008243099999922 -0.012484908149998475 -0.002786250786000012
                      CHANNELS 3 Yrotation Xrotation Zrotation
                      End Site
                      {
                        OFFSET 0.19008243099999922 -0.012484908149998475 -0.002786250786000012
                      }
                    }
                  }
                }
                JOINT leftMiddleProximal
                {
                  OFFSET 0.5834975091000001 0.0524350405149987 0.02204081888183999
                  CHANNELS 3 Yrotation Xrotation Zrotation
                  JOINT leftMiddleIntermediate
                  {
                    OFFSET 0.33880573540000003 -0.019871473270000717 -0.00000971183179999946
                    CHANNELS 3 Yrotation Xrotation Zrotation
                    JOINT leftMiddleDistal
                    {
                      OFFSET 0.20676022730000088 -0.012221336379999448 0.0001471936708000235
                      CHANNELS 3 Yrotation Xrotation Zrotation
                      End Site
                      {
                        OFFSET 0.20676022730000088 -0.012221336379999448 0.0001471936708000235
                      }
                    }
                  }
                }
                JOINT leftLittleProximal
                {
                  OFFSET 0.5344154683999995 -0.012880921405001189 -0.24414037221816004
                  CHANNELS 3 Yrotation Xrotation Zrotation
                  JOINT leftLittleIntermediate
                  {
                    OFFSET 0.21758961730000093 -0.011650919939999227 0.011893592810000034
                    CHANNELS 3 Yrotation Xrotation Zrotation
                    JOINT leftLittleDistal
                    {
                      OFFSET 0.1475273964999999 -0.008152365682999818 0.006001092492999946
                      CHANNELS 3 Yrotation Xrotation Zrotation
                      End Site
                      {
                        OFFSET 0.1475273964999999 -0.008152365682999818 0.006001092492999946
                      }
                    }
                  }
                }
                JOINT leftRingProximal
                {
                  OFFSET 0.5799399463000003 0.026911854694997794 -0.12150566991816003
                  CHANNELS 3 Yrotation Xrotation Zrotation
                  JOINT leftRingIntermediate
                  {
                    OFFSET 0.26167887460000006 -0.013480186499999602 0.010996293000000053
                    CHANNELS 3 Yrotation Xrotation Zrotation
                    JOINT leftRingDistal
                    {
                      OFFSET 0.17667108799999987 -0.008990287899999228 0.0055541023999999065
                      CHANNELS 3 Yrotation Xrotation Zrotation
                      End Site
                      {
                        OFFSET 0.17667108799999987 -0.008990287899999228 0.0055541023999999065
                      }
                    }
                  }
                }
                JOINT leftThumbProximal
                {
                  OFFSET 0.11018806699999972 -0.09448718900500053 0.17047963138184
                  CHANNELS 3 Yrotation Xrotation Zrotation
                  JOINT leftThumbIntermediate
                  {
                    OFFSET 0.31062601459999983 -0.08126270900000132 0.15443142000000007
                    CHANNELS 3 Yrotation Xrotation Zrotation
                    JOINT leftThumbDistal
                    {
                      OFFSET 0.21627175790000086 -0.08833193599999878 0.018771167799999988
                      CHANNELS 3 Yrotation Xrotation Zrotation
                      End Site
                      {
                        OFFSET 0.21627175790000086 -0.08833193599999878 0.018771167799999988
                      }
                    }
                  }
                }
              }
            }
          }
        }
        JOINT neck
        {
          OFFSET 0 1.5463305265074576 0
          CHANNELS 3 Yrotation Xrotation Zrotation
          JOINT head
          {
            OFFSET 0 0.8456443600000344 0
            CHANNELS 3 Yrotation Xrotation Zrotation
            JOINT leftEye
            {
              OFFSET 0.30408573140000006 0.5104519199999995 0.1276382305
              CHANNELS 3 Yrotation Xrotation Zrotation
              End Site
              {
                OFFSET 0.30408573140000006 0.5104519199999995 0.1276382305
              }
            }
            JOINT rightEye
            {
              OFFSET -0.30409491089999996 0.5104519199999995 0.1276379445
              CHANNELS 3 Yrotation Xrotation Zrotation
              End Site
              {
                OFFSET -0.30409491089999996 0.5104519199999995 0.1276379445
              }
            }
            JOINT jaw
            {
              OFFSET -3.155239131000001e-7 -0.11984121820000082 0.60178107
              CHANNELS 3 Yrotation Xrotation Zrotation
              End Site
              {
                OFFSET -3.155239131000001e-7 -0.11984121820000082 0.60178107
              }
            }
          }
        }
        JOINT rightShoulder
        {
          OFFSET -0.1807303465 1.5087829790000005 0
          CHANNELS 3 Yrotation Xrotation Zrotation
          JOINT rightUpperArm
          {
            OFFSET -0.5985063796536958 0 0
            CHANNELS 3 Yrotation Xrotation Zrotation
            JOINT rightLowerArm
            {
              OFFSET -2.2993322059002854 0 0
              CHANNELS 3 Yrotation Xrotation Zrotation
              JOINT rightHand
              {
                OFFSET -2.395045314457259 0 0
                CHANNELS 3 Yrotation Xrotation Zrotation
                JOINT rightIndexProximal
                {
                  OFFSET -0.5764487688300002 0.0441371204405987 0.17361932004999997
                  CHANNELS 3 Yrotation Xrotation Zrotation
                  JOINT rightIndexIntermediate
                  {
                    OFFSET -0.29573011380000047 -0.01934826376999843 -0.007698921482999974
                    CHANNELS 3 Yrotation Xrotation Zrotation
                    JOINT rightIndexDistal
                    {
                      OFFSET -0.19008373999999884 -0.012503266380000655 -0.0026365778999999897
                      CHANNELS 3 Yrotation Xrotation Zrotation
                      End Site
                      {
                        OFFSET -0.19008373999999884 -0.012503266380000655 -0.0026365778999999897
                      }
                    }
                  }
                }
                JOINT rightMiddleProximal
                {
                  OFFSET -0.5834852037300005 0.05211639405060153 0.02307162440000001
                  CHANNELS 3 Yrotation Xrotation Zrotation
                  JOINT rightMiddleIntermediate
                  {
                    OFFSET -0.33880114510000003 -0.019952774050000954 0.0002455003561999819
                    CHANNELS 3 Yrotation Xrotation Zrotation
                    JOINT rightMiddleDistal
                    {
                      OFFSET -0.20675694929999955 -0.012273788999999091 0.00030209124000002766
                      CHANNELS 3 Yrotation Xrotation Zrotation
                      End Site
                      {
                        OFFSET -0.20675694929999955 -0.012273788999999091 0.00030209124000002766
                      }
                    }
                  }
                }
                JOINT rightLittleProximal
                {
                  OFFSET -0.5346811737299992 -0.011214256288399227 -0.24363941305000003
                  CHANNELS 3 Yrotation Xrotation Zrotation
                  JOINT rightLittleIntermediate
                  {
                    OFFSET -0.21757715980000092 -0.011771559690000988 0.01201554387
                    CHANNELS 3 Yrotation Xrotation Zrotation
                    JOINT rightLittleDistal
                    {
                      OFFSET -0.1475201849000004 -0.00822055339600003 0.006082065407000015
                      CHANNELS 3 Yrotation Xrotation Zrotation
                      End Site
                      {
                        OFFSET -0.1475201849000004 -0.00822055339600003 0.006082065407000015
                      }
                    }
                  }
                }
                JOINT rightRingProximal
                {
                  OFFSET -0.5800810755299999 0.027657985680600072 -0.12066365025000003
                  CHANNELS 3 Yrotation Xrotation Zrotation
                  JOINT rightRingIntermediate
                  {
                    OFFSET -0.26166445029999974 -0.013623118409999302 0.011164098990000045
                    CHANNELS 3 Yrotation Xrotation Zrotation
                    JOINT rightRingDistal
                    {
                      OFFSET -0.17666387530000027 -0.009072900100000503 0.005668185599999959
                      CHANNELS 3 Yrotation Xrotation Zrotation
                      End Site
                      {
                        OFFSET -0.17666387530000027 -0.009072900100000503 0.005668185599999959
                      }
                    }
                  }
                }
                JOINT rightThumbProximal
                {
                  OFFSET -0.10997596379000074 -0.09577489355940072 0.16989765924999997
                  CHANNELS 3 Yrotation Xrotation Zrotation
                  JOINT rightThumbIntermediate
                  {
                    OFFSET -0.31036620999999986 -0.08229339117999834 0.15440884469999996
                    CHANNELS 3 Yrotation Xrotation Zrotation
                    JOINT rightThumbDistal
                    {
                      OFFSET -0.21631306399999906 -0.08825326400000111 0.018656797720000014
                      CHANNELS 3 Yrotation Xrotation Zrotation
                      End Site
                      {
                        OFFSET -0.21631306399999906 -0.08825326400000111 0.018656797720000014
                      }
                    }
                  }
                }
              }
            }
          }
        }
      }
    }
  }
}
MOTION
Frames: 7
Frame Time: 0.03333333333333333
0 11.682712981546562 0 0 0 0 0 0 -5.826343164929014 -0.3712483961610101 -3.6333298826370974 5.838118207697276 0 0 0 0 0 0 0 0 5.826343164929014 0.3712483961610101 -3.6333298826370974 -5.838118207697276 0 0 0 0 0 0 0 -4.610651315171937 0 0 3.0831277533083026 0 0 0 0 0 1.5275236235667615 0 0 0 0 0 0 0 0 0 0 0 0 0 0 0 0 0 0 0 0 0 0 0 0 0 0 0 0 0 0 0 0 0 0 0 0 0 0 0 0 0 0 0 0 0 0 0 0 0 0 0 0 0 0 0 0 1.5275236235667615 0 0 0 0 0 0 0 0 0 0 0 0 0 0 1.5275236235667615 0 0 0 0 0 0 0 0 0 0 0 0 0 0 0 0 0 0 0 0 0 0 0 0 0 0 0 0 0 0 0 0 0 0 0 0 0 0 0 0 0 0 0 0 0 0 0 0 0 0 0 0 0 0 0
0 -9.949070143178398 0 89.9991383829662 -43.00034648918498 -90.00183633113072 -0.9095172668792538 -17.171161761706305 8.492794909618787 1.1652096638166092 11.476509424604759 -0.5018085585205699 2.3959397165843432 13.60013783127389 6.052984300663472 0 0 0 -25.971561644823087 -28.711066276330094 -26.061761914037046 -161.49723460911065 71.37969596460674 -165.5310273476562 -2.127641669402597 23.40767341981605 -5.391285383019814 0 0 0 -30.680798451602833 22.085691213046847 -15.260372036927354 -24.33478757158228 30.927834124367557 -14.555006778229016 0 0 0 2.2116232346416878 2.0386157637299425 -22.941850892297232 -3.4173104122532334 0.03779233321237046 -15.623791610514765 -76.23478048541563 -66.75647564684797 -15.888903287074953 0 0 -7.00032480930298 0 0 0 0 0 0 0 0 0 0 0 0 0 0 0 0 0 0 0 0 0 0 0 0 0 0 0 0 0 0 0 0 0 0 0 0 0 0 0 0 0 0 0 0 0 12.582911881458813 19.31424877432341 3.5605884217448764 0.07665419378115784 -0.1283013821428219 -4.384790512338917 0 0 0 0 0 0 0 0 0 3.4535738946290686 -3.5451899121977806 -19.789389742023687 7.286788354507846 -2.3755734143497373 -28.440492583478413 137.20904752282357 20.91389758484707 -60.62777323789463 0 0 6.996825090742016 0 0 0 0 0 0 0 0 0 0 0 0 0 0 0 0 0 0 0 0 0 0 0 0 0 0 0 0 0 0 0 0 0 0 0 0 0 0 0 0 0 0 0 0 0
0 -9.949070143178398 0 89.9991383829662 -43.00034648918498 -90.00183633113072 -0.9095172668792538 -17.171161761706305 8.492794909618787 1.1652096638166092 11.476509424604759 -0.5018095385739055 2.3959397165843432 13.60013783127389 6.052984300663472 0 0 0 -25.884209975404712 -28.668877372207035 -25.942738625279773 -161.49723460911065 71.37969596460674 -165.5310273476562 -2.127641669402597 23.40767341981605 -5.391285383019814 0 0 0 -30.680798451602833 22.085691213046847 -15.260372036927354 -24.334789385302734 30.927834124367557 -14.55500870492184 0 0 0 2.2116232346416878 2.0386157637299425 -22.941850892297232 -3.4173104122532334 0.03779233321237046 -15.623791610514765 -76.23478048541563 -66.75647564684797 -15.888903287074953 0 0 -7.00032480930298 0 0 0 0 0 0 0 0 0 0 0 0 0 0 0 0 0 0 0 0 0 0 0 0 0 0 0 0 0 0 0 0 0 0 0 0 0 0 0 0 0 0 0 0 0 12.585605469431114 19.404954753149802 3.5825847650540528 0.4114437505162928 0.20319871384774818 -4.321500449385555 0 0 0 0 0 0 0 0 0 3.4535738946290686 -3.5451899121977806 -19.789389742023687 7.286788354507846 -2.3755734143497373 -28.440492583478413 137.20904752282357 20.91389758484707 -60.62777323789463 0 0 6.996825090742016 0 0 0 0 0 0 0 0 0 0 0 0 0 0 0 0 0 0 0 0 0 0 0 0 0 0 0 0 0 0 0 0 0 0 0 0 0 0 0 0 0 0 0 0 0
0 -9.949070143178398 0 89.9991383829662 -43.00034648918498 -90.00183633113072 -0.9095172668792538 -17.171161761706305 8.492795793424119 1.165209843557038 11.476510295796706 -0.5018085585205699 2.3959397165843432 13.600138709677598 6.052985174169887 0 0 0 -25.796769069206363 -28.62682994929583 -25.823667861454346 -161.49723460911065 71.37969596460674 -165.5310273476562 -2.127641669402597 23.40767341981605 -5.391285383019814 0 0 0 -30.680800036423356 22.085691213046847 -15.260374703609598 -24.33478757158228 30.927834124367557 -14.555006778229016 0 0 0 2.2116232346416878 2.0386157637299425 -22.94185403925273 -3.4173104122532334 0.03779233321237046 -15.623791610514765 -76.23477313090675 -66.75647564684797 -15.888910569767164 0 0 -7.00032480930298 0 0 0 0 0 0 0 0 0 0 0 0 0 0 0 0 0 0 0 0 0 0 0 0 0 0 0 0 0 0 0 0 0 0 0 0 0 0 0 0 0 0 0 0 0 12.5883334504205 19.495667869525406 3.604598214196093 0.7469593529706591 0.53466392221959 -4.256205349137916 0 0 0 0 0 0 0 0 0 3.4535738946290686 -3.5451899121977806 -19.789389742023687 7.286788354507846 -2.3755729870957287 -28.44049571406042 137.20904752282357 20.91389758484707 -60.62777323789463 0 0 6.996825090742016 0 0 0 0 0 0 0 0 0 0 0 0 0 0 0 0 0 0 0 0 0 0 0 0 0 0 0 0 0 0 0 0 0 0 0 0 0 0 0 0 0 0 0 0 0
0 -9.949070143178398 0 89.9991383829662 -43.00034648918498 -90.00183633113072 -0.9095172668792538 -17.171161761706305 8.492794909618787 1.1652096638166092 11.476509424604759 -0.5018095385739055 2.3959397165843432 13.60013783127389 6.052984300663472 0 0 0 -25.70925198172275 -28.584941316064807 -25.704550220076477 -161.4972486155705 71.37968526888018 -165.53104066796067 -2.127641807561026 23.407675280494534 -5.391286309243488 0 0 0 -30.680798451602833 22.085691213046847 -15.260372036927354 -24.334789385302734 30.927834124367557 -14.55500870492184 0 0 0 2.2116232346416878 2.0386157637299425 -22.941850892297232 -3.4173104122532334 0.03779233321237046 -15.623791610514765 -76.23478783992499 -66.75647564684797 -15.888903287074953 0 0 -7.00032480930298 0 0 0 0 0 0 0 0 0 0 0 0 0 0 0 0 0 0 0 0 0 0 0 0 0 0 0 0 0 0 0 0 0 0 0 0 0 0 0 0 0 0 0 0 0 12.59110386317697 19.586395612686946 3.6266346265861458 1.0832105635172904 0.8660715656273035 -4.188896560993118 0 0 0 0 0 0 0 0 0 3.4535738946290686 -3.5451899121977806 -19.789389742023687 7.286788354507846 -2.3755729870957287 -28.44049571406042 137.20903450702517 20.91389758484707 -60.62777323789463 0 0 6.996825090742016 0 0 0 0 0 0 0 0 0 0 0 0 0 0 0 0 0 0 0 0 0 0 0 0 0 0 0 0 0 0 0 0 0 0 0 0 0 0 0 0 0 0 0 0 0
0 -9.949070143178398 0 89.99913638299047 -43.00034648918498 -90.00183633113072 -0.9095172668792538 -17.171161761706305 8.492794909618787 1.1652096638166092 11.476509424604759 -0.5018085585205699 2.3959397165843432 13.60013783127389 6.052984300663472 0 0 0 -25.621654747794548 -28.543205428912078 -25.585389664831446 -161.49723460911065 71.37969596460674 -165.5310273476562 -2.127641669402597 23.40767341981605 -5.391286309243488 0 0 0 -30.680798451602833 22.085691213046847 -15.260372036927354 -24.33478757158228 30.927834124367557 -14.555006778229016 0 0 0 2.2116232346416878 2.0386157637299425 -22.941850892297232 -3.4173104122532334 0.03779233321237046 -15.623791610514765 -76.23478048541563 -66.75647564684797 -15.888903287074953 0 0 -7.00032480930298 0 0 0 0 0 0 0 0 0 0 0 0 0 0 0 0 0 0 0 0 0 0 0 0 0 0 0 0 0 0 0 0 0 0 0 0 0 0 0 0 0 0 0 0 0 12.593913261031693 19.677136421562906 3.6486914998314997 1.4202112783846106 1.1973972284092842 -4.119567912061804 0 0 0 0 0 0 0 0 0 3.4535738946290686 -3.5451899121977806 -19.789389742023687 7.286788354507846 -2.3755729870957287 -28.44049571406042 137.20904752282357 20.91389758484707 -60.62777323789463 0 0 6.996825090742016 0 0 0 0 0 0 0 0 0 0 0 0 0 0 0 0 0 0 0 0 0 0 0 0 0 0 0 0 0 0 0 0 0 0 0 0 0 0 0 0 0 0 0 0 0
0 -9.949070143178398 0 89.99914691070481 -43.00034648918498 -90.00184590242787 -0.9095182720573098 -17.171163548914706 8.492795793424119 1.1652096638166092 11.476509424604759 -0.5018095385739055 2.3959397165843432 13.60013783127389 6.052984300663472 0 0 0 -25.533973322401373 -28.501614311948845 -25.466178157638975 -161.49723460911065 71.37969596460674 -165.5310273476562 -2.127641669402597 23.40767341981605 -5.391286309243488 0 0 0 -30.680800036423356 22.085691213046847 -15.260374703609598 -24.334789385302734 30.927834124367557 -14.55500870492184 0 0 0 2.2116232346416878 2.0386157637299425 -22.94185403925273 -3.4173104122532334 0.03779233321237046 -15.623791610514765 -76.23477313090675 -66.75647564684797 -15.888910569767164 0 0 -7.00032480930298 0 0 0 0 0 0 0 0 0 0 0 0 0 0 0 0 0 0 0 0 0 0 0 0 0 0 0 0 0 0 0 0 0 0 0 0 0 0 0 0 0 0 0 0 0 12.596763408719925 19.767892360577704 3.6707692753313794 1.7579733401106192 1.5286166290846452 -4.048215620404453 0 0 0 0 0 0 0 0 0 3.4535743215576336 -3.545190767608393 -19.789389742023687 7.286788354507846 -2.3755729870957287 -28.44049571406042 137.20904503923916 20.91389758484707 -60.62777642388414 0 0 6.996826361865313 0 0 0 0 0 0 0 0 0 0 0 0 0 0 0 0 0 0 0 0 0 0 0 0 0 0 0 0 0 0 0 0 0 0 0 0 0 0 0 0 0 0 0 0 0
